# xmcd
#
# Track frame offsets: 
#        150
#        16330
#        35667
#        53020
#        68436
#        78861
#        91300
#        109549
#        119334
#        136882
#        146865
#        165344
#        180015
#        197202
#        204060
#        218573
#        233400
#        248060
#        263770
#        264606
#        265663
#        293583
#        322272
#        331512
#        348663
#
# Disc length: 4796 seconds
#
# Revision: 0
# Processed by: cddbd v1.5.2PL0 Copyright (c) Steve Scherf et al.
# Submitted via: ExactAudioCopy v0.95b3
#
DISCID=4f12ba19
DTITLE=The Beatles  - Let It Be Deluxe - 11 - Disc 5 - sessions  FLAC
DYEAR=1900
DGENRE=
TTITLE0=She Came In Through The Bathroom Window - 21-78
TTITLE1=Dig A Pony - 22-21
TTITLE2=Dig A Pony - 22-23
TTITLE3=Two Of Us - 24-30
TTITLE4=For You Blue - 25-34
TTITLE5=For You Blue - 25-49+25-45
TTITLE6=Let It Be - 25-81
TTITLE7=Rip It Up-Shake Rattle And Roll - 26-56+26-57
TTITLE8=Miss Ann-Kansas City-Lawdy Miss Clawdy - 26-58
TTITLE9=Blue Suede Shoes - 26-59
TTITLE10=Oh! Darling 27-56
TTITLE11=Teddy Boy - 28-83+24-33
TTITLE12=Cannonball-Not Fade Away-Hey Little Girl-Bo Diddley - 29-49
TTITLE13=Mailman, Bring Me No More Blues - 29-53
TTITLE14=Get Back - 30-04
TTITLE15=Don't Let Me Down - 30-05
TTITLE16=Get Back - 30-17
TTITLE17=Two Of Us - 31-13+31-15
TTITLE18=Two Of Us chat
TTITLE19=Let It Be chat
TTITLE20=You Know My Name (Look Up The Number) (complete)
TTITLE21=Session Jam Part 1 and 2
TTITLE22=I Me Mine
TTITLE23=Let It Be (both guitar solos)
TTITLE24=For You Blue (both vocals)
EXTD=
EXTT0=
EXTT1=
EXTT2=
EXTT3=
EXTT4=
EXTT5=
EXTT6=
EXTT7=
EXTT8=
EXTT9=
EXTT10=
EXTT11=
EXTT12=
EXTT13=
EXTT14=
EXTT15=
EXTT16=
EXTT17=
EXTT18=
EXTT19=
EXTT20=
EXTT21=
EXTT22=
EXTT23=
EXTT24=
PLAYORDER=
